HIERARCHY
ROOT Hips
{
	OFFSET 0.000000 0.000000 0.000000
	CHANNELS 6 Xposition Yposition Zposition Zrotation Yrotation Xrotation 
	JOINT LHipJoint
	{
		OFFSET 0.000000 0.000000 0.000000
		CHANNELS 3 Zrotation Yrotation Xrotation
		JOINT LeftUpLeg
		{
			OFFSET 1.363060 -1.794630 0.839290
			CHANNELS 3 Zrotation Yrotation Xrotation
			JOINT LeftLeg
			{
				OFFSET 2.448110 -6.726130 0.000000
				CHANNELS 3 Zrotation Yrotation Xrotation
				JOINT LeftFoot
				{
					OFFSET 2.562200 -7.039590 0.000000
					CHANNELS 3 Zrotation Yrotation Xrotation
					JOINT LeftToeBase
					{
						OFFSET 0.157640 -0.433110 2.322550
						CHANNELS 3 Zrotation Yrotation Xrotation
						End Site
						{
							OFFSET 0.000000 0.000000 0.000000
						}
					}
				}
			}
		}
	}
	JOINT RHipJoint
	{
		OFFSET 0.000000 0.000000 0.000000
		CHANNELS 3 Zrotation Yrotation Xrotation
		JOINT RightUpLeg
		{
			OFFSET -1.305520 -1.794630 0.839290
			CHANNELS 3 Zrotation Yrotation Xrotation
			JOINT RightLeg
			{
				OFFSET -2.542530 -6.985550 0.000000
				CHANNELS 3 Zrotation Yrotation Xrotation
				JOINT RightFoot
				{
					OFFSET -2.568260 -7.056230 0.000000
					CHANNELS 3 Zrotation Yrotation Xrotation
					JOINT RightToeBase
					{
						OFFSET -0.164730 -0.452590 2.363150
						CHANNELS 3 Zrotation Yrotation Xrotation
						End Site
						{
							OFFSET 0.000000 0.000000 0.000000
						}
					}
				}
			}
		}
	}
	JOINT LowerBack
	{
		OFFSET 0.000000 0.000000 0.000000
		CHANNELS 3 Zrotation Yrotation Xrotation
		JOINT Spine
		{
			OFFSET 0.028270 2.035590 -0.193380
			CHANNELS 3 Zrotation Yrotation Xrotation
			JOINT Spine1
			{
				OFFSET 0.056720 2.048850 -0.042750
				CHANNELS 3 Zrotation Yrotation Xrotation
				JOINT Neck
				{
					OFFSET 0.000000 0.000000 0.000000
					CHANNELS 3 Zrotation Yrotation Xrotation
					JOINT Neck1
					{
						OFFSET -0.054170 1.746240 0.172020
						CHANNELS 3 Zrotation Yrotation Xrotation
						JOINT Head
						{
							OFFSET 0.104070 1.761360 -0.123970
							CHANNELS 3 Zrotation Yrotation Xrotation
							End Site
							{
								OFFSET 0.000000 0.000000 0.000000
							}
						}
					}
				}
				JOINT LeftShoulder
				{
					OFFSET 0.000000 0.000000 0.000000
					CHANNELS 3 Zrotation Yrotation Xrotation
					JOINT LeftArm
					{
						OFFSET 3.362410 1.200890 -0.311210
						CHANNELS 3 Zrotation Yrotation Xrotation
						JOINT LeftForeArm
						{
							OFFSET 4.983000 -0.000000 -0.000000
							CHANNELS 3 Zrotation Yrotation Xrotation
							JOINT LeftHand
							{
								OFFSET 3.483560 -0.000000 -0.000000
								CHANNELS 3 Zrotation Yrotation Xrotation
								JOINT LeftFingerBase
								{
									OFFSET 0.000000 0.000000 0.000000
									CHANNELS 3 Zrotation Yrotation Xrotation
									JOINT LeftHandIndex1
									{
										OFFSET 0.715260 -0.000000 -0.000000
										CHANNELS 3 Zrotation Yrotation Xrotation
										End Site
										{
											OFFSET 0.000000 0.000000 0.000000
										}
									}
								}
								JOINT LThumb
								{
									OFFSET 0.000000 0.000000 0.000000
									CHANNELS 3 Zrotation Yrotation Xrotation
									End Site
									{
										OFFSET 0.000000 0.000000 0.000000
									}
								}
							}
						}
					}
				}
				JOINT RightShoulder
				{
					OFFSET 0.000000 0.000000 0.000000
					CHANNELS 3 Zrotation Yrotation Xrotation
					JOINT RightArm
					{
						OFFSET -3.136600 1.374050 -0.404650
						CHANNELS 3 Zrotation Yrotation Xrotation
						JOINT RightForeArm
						{
							OFFSET -5.241900 -0.000000 -0.000000
							CHANNELS 3 Zrotation Yrotation Xrotation
							JOINT RightHand
							{
								OFFSET -3.444170 -0.000000 -0.000000
								CHANNELS 3 Zrotation Yrotation Xrotation
								JOINT RightFingerBase
								{
									OFFSET 0.000000 0.000000 0.000000
									CHANNELS 3 Zrotation Yrotation Xrotation
									JOINT RightHandIndex1
									{
										OFFSET -0.622530 -0.000000 -0.000000
										CHANNELS 3 Zrotation Yrotation Xrotation
										End Site
										{
											OFFSET 0.000000 0.000000 0.000000
										}
									}
								}
								JOINT RThumb
								{
									OFFSET 0.000000 0.000000 0.000000
									CHANNELS 3 Zrotation Yrotation Xrotation
									End Site
									{
										OFFSET 0.000000 0.000000 0.000000
									}
								}
							}
						}
					}
				}
			}
		}
	}
}
MOTION
Frames: 13
Frame Time: 0.033333
-0.189104 17.394392 -0.189104 -5.256255 -4.633366 3.284311 -3.042723 16.006704 4.208446 -12.055851 -3.958106 -11.885509 -5.599138 -11.288580 -32.694251 2.344959 17.665081 38.416485 0.000000 0.000000 0.000000 -2.665122 -19.594525 -17.539412 42.113590 1.651957 5.604156 -11.046541 -1.562613 25.990166 -1.170670 13.772611 -29.402580 0.000000 0.000000 0.000000 0.640943 1.356885 17.611223 4.557849 2.035147 -3.487793 2.624124 2.384894 -7.907581 -2.774190 0.418700 -0.415512 3.112432 -0.080058 3.726035 0.000000 0.000000 0.000000 1.336978 11.016528 11.047345 -69.859545 -2.375309 20.100070 -15.324596 -79.491920 0.398833 1.812153 -14.999655 0.193218 1.864835 -14.998316 0.000000 0.000000 0.000000 0.000000 0.000000 0.000000 0.000000 4.902399 -15.166665 2.238559 57.751234 10.737257 0.811004 8.247519 -2.595482 0.066401 0.495936 4.251648 0.033182 0.496505 4.251973 0.000000 0.000000 0.000000 0.000000 0.000000 0.000000 0.000000 
-0.159936 17.438588 -0.011310 -4.802453 -5.078691 3.685023 -2.666206 16.461161 3.898038 -13.155345 -4.080046 -11.959571 -5.924084 -10.659558 -30.809391 1.818141 16.284227 35.443682 0.000000 0.000000 0.000000 -2.541659 -20.381679 -16.148939 41.668758 3.351349 4.091565 -11.132962 -1.431270 27.807147 -1.322459 14.200369 -29.735610 0.000000 0.000000 0.000000 0.611323 1.558189 16.899444 4.403663 2.077551 -3.118221 2.577070 2.408778 -8.329997 -3.259021 0.450017 0.073543 3.187383 -0.087477 3.767401 0.000000 0.000000 0.000000 0.753087 11.127222 11.174515 -69.543505 -2.247829 20.275496 -15.513847 -79.321916 0.403625 1.778926 -15.031669 0.195609 1.831187 -15.030547 0.000000 0.000000 0.000000 0.000000 0.000000 0.000000 0.000000 5.917280 -15.341130 1.990555 56.444819 10.390449 0.950291 7.833256 -3.054314 0.067325 0.509629 4.100140 0.033646 0.510235 4.100481 0.000000 0.000000 0.000000 0.000000 0.000000 0.000000 0.000000 
-0.128578 17.484603 0.165950 -4.341970 -5.449609 4.082635 -2.301364 16.941260 3.575897 -14.268130 -4.270224 -12.104824 -6.251318 -9.976860 -28.706017 1.342705 14.834682 32.348415 0.000000 0.000000 0.000000 -2.423162 -21.084654 -14.760967 41.099333 5.015715 2.536872 -11.169721 -1.328072 29.512928 -1.444888 14.557754 -29.981990 0.000000 0.000000 0.000000 0.598247 1.729682 16.178120 4.253533 2.098401 -2.747389 2.519141 2.406620 -8.745188 -3.763375 0.484985 0.574909 3.276818 -0.094491 3.799446 0.000000 0.000000 0.000000 0.166845 11.230913 11.305843 -69.215272 -2.125767 20.444881 -15.696896 -79.156446 0.408269 1.747196 -15.063395 0.197925 1.799051 -15.062479 0.000000 0.000000 0.000000 0.000000 0.000000 0.000000 0.000000 6.935024 -15.517112 1.737315 55.111736 10.034204 1.097826 7.464890 -3.459573 0.068207 0.521360 3.954450 0.034088 0.521988 3.954811 0.000000 0.000000 0.000000 0.000000 0.000000 0.000000 0.000000 
-0.095083 17.531990 0.342281 -3.879952 -5.742902 4.475203 -1.959452 17.456270 3.250886 -15.377339 -4.536191 -12.339068 -6.575738 -9.232405 -26.380845 0.921394 13.332691 29.169138 0.000000 0.000000 0.000000 -2.309962 -21.708198 -13.386245 40.410471 6.623240 0.950912 -11.155376 -1.256677 31.096635 -1.539893 14.850916 -30.146815 0.000000 0.000000 0.000000 0.607208 1.869653 15.449542 4.108533 2.097021 -2.375757 2.449675 2.378056 -9.151933 -4.287766 0.524004 1.089403 3.381279 -0.101102 3.821627 0.000000 0.000000 0.000000 -0.421536 11.327155 11.441619 -68.874978 -2.009026 20.607786 -15.873441 -78.995694 0.412746 1.717068 -15.094836 0.200157 1.768535 -15.094115 0.000000 0.000000 0.000000 0.000000 0.000000 0.000000 0.000000 7.955026 -15.693674 1.478137 53.754468 9.669908 1.253142 7.138748 -3.816681 0.069069 0.531001 3.814284 0.034520 0.531642 3.814668 0.000000 0.000000 0.000000 0.000000 0.000000 0.000000 0.000000 
-0.060024 17.580341 0.517324 -3.422248 -5.956957 4.861556 -1.654343 18.013645 2.933331 -16.462716 -4.885864 -12.680943 -6.883391 -8.419842 -23.835354 0.554164 11.796110 25.950974 0.000000 0.000000 0.000000 -2.200707 -22.257329 -12.034650 39.608701 8.154757 -0.655798 -11.084677 -1.222342 32.552411 -1.609070 15.084813 -30.236300 0.000000 0.000000 0.000000 0.643971 1.977084 14.715348 3.969750 2.073195 -2.003846 2.368031 2.323192 -9.548924 -4.832680 0.567505 1.617784 3.501292 -0.107312 3.833442 0.000000 0.000000 0.000000 -1.011815 11.415727 11.582103 -68.522794 -1.897441 20.763804 -16.043213 -78.839830 0.417035 1.688635 -15.125996 0.202294 1.739737 -15.125458 0.000000 0.000000 0.000000 0.000000 0.000000 0.000000 0.000000 8.976770 -15.869663 1.212557 52.375312 9.298824 1.415903 6.851374 -4.130399 0.069937 0.538483 3.679390 0.034955 0.539129 3.679800 0.000000 0.000000 0.000000 0.000000 0.000000 0.000000 0.000000 
-0.040554 17.616468 0.673341 -3.141221 -5.872215 5.125085 -1.473685 18.045751 2.585621 -17.138494 -4.933974 -12.503986 -6.887748 -7.964874 -22.403239 0.359263 10.738742 23.766565 0.000000 0.000000 0.000000 -1.960557 -22.135418 -11.408641 38.727271 8.983965 -1.653946 -11.010108 -1.495029 33.749205 -1.545535 14.974335 -30.432197 0.000000 0.000000 0.000000 0.514113 1.905176 14.566583 3.572599 1.910605 -1.985787 2.102428 2.223732 -9.398339 -4.250229 0.508861 1.376921 3.464519 -0.114892 4.002114 0.000000 0.000000 0.000000 -0.542199 11.714902 11.343788 -68.639573 -2.126346 20.644882 -14.980912 -79.375588 0.412647 1.853857 -15.074036 0.200029 1.906437 -15.072640 0.000000 0.000000 0.000000 0.000000 0.000000 0.000000 0.000000 7.625984 -16.055327 1.443722 54.389437 9.890966 1.080199 7.540004 -3.461662 0.069121 0.563612 3.966326 0.034545 0.564257 3.966695 0.000000 0.000000 0.000000 0.000000 0.000000 0.000000 0.000000 
-0.019630 17.652590 0.827671 -2.872521 -5.773070 5.385475 -1.317291 18.079343 2.235299 -17.775854 -4.994109 -12.364153 -6.889992 -7.487124 -20.920563 0.193545 9.705289 21.615558 0.000000 0.000000 0.000000 -1.716854 -21.978824 -10.792854 37.811750 9.756871 -2.639875 -10.919694 -1.772306 34.857835 -1.474538 14.842212 -30.573299 0.000000 0.000000 0.000000 0.389536 1.810582 14.420428 3.228521 1.740024 -1.978879 1.792105 2.114487 -9.225419 -3.699369 0.454157 1.152165 3.450538 -0.121151 4.154033 0.000000 0.000000 0.000000 -0.076799 12.024243 11.106239 -68.738462 -2.363090 20.496321 -13.911695 -79.912071 0.407666 2.021544 -15.015701 0.197472 2.075583 -15.013399 0.000000 0.000000 0.000000 0.000000 0.000000 0.000000 0.000000 6.264948 -16.230746 1.694718 56.346950 10.442137 0.778946 8.434840 -2.580362 0.068657 0.586349 4.283679 0.034310 0.586959 4.284023 0.000000 0.000000 0.000000 0.000000 0.000000 0.000000 0.000000 
0.001937 17.688353 0.980298 -2.621712 -5.665520 5.638313 -1.180261 18.118756 1.889122 -18.372550 -5.065224 -12.260635 -6.882445 -6.989090 -19.397374 0.052053 8.699615 19.507426 0.000000 0.000000 0.000000 -1.465605 -21.790453 -10.191023 36.867927 10.470184 -3.603059 -10.809189 -2.057168 35.884037 -1.397962 14.692008 -30.667026 0.000000 0.000000 0.000000 0.256539 1.682116 14.275742 2.950986 1.564007 -1.910867 1.341384 2.001594 -9.151349 -3.083609 0.388567 0.929650 3.481780 -0.130170 4.353012 0.000000 0.000000 0.000000 0.114055 12.538849 11.013696 -68.965137 -2.844462 18.716312 -8.409366 -82.571663 0.375871 2.710802 -14.381628 0.181956 2.765507 -14.375507 0.000000 0.000000 0.000000 0.000000 0.000000 0.000000 0.000000 4.982248 -16.405432 1.964263 58.215067 10.884311 0.526535 9.595891 -1.421159 0.068820 0.612945 4.633823 0.034387 0.613470 4.634165 0.000000 0.000000 0.000000 0.000000 0.000000 0.000000 0.000000 
0.024388 17.723638 1.131194 -2.382763 -5.548365 5.886943 -1.067946 18.166988 1.546882 -18.930754 -5.153896 -12.201062 -6.867135 -6.468521 -17.824170 -0.066827 7.719765 17.441028 0.000000 0.000000 0.000000 -1.214844 -21.587147 -9.596794 35.904808 11.129428 -4.550043 -10.682681 -2.344289 36.832107 -1.318843 14.531391 -30.716681 0.000000 0.000000 0.000000 0.132643 1.541330 14.129593 2.712626 1.387623 -1.848669 0.882812 1.878924 -9.072033 -2.510854 0.326741 0.736870 3.522062 -0.138444 4.538927 0.000000 0.000000 0.000000 0.309043 13.071131 10.879658 -69.206488 -3.484389 16.604568 -3.438834 -84.922531 0.343918 3.302802 -13.670701 0.166513 3.355853 -13.661387 0.000000 0.000000 0.000000 0.000000 0.000000 0.000000 0.000000 3.728549 -16.566909 2.274648 59.914326 11.236681 0.346121 11.053336 0.090567 0.069227 0.640802 5.017338 0.034583 0.641147 5.017703 0.000000 0.000000 0.000000 0.000000 0.000000 0.000000 0.000000 
0.041501 17.754116 1.274636 -2.284904 -5.440098 6.086820 -0.909019 18.092264 1.212983 -19.343691 -5.111943 -11.956134 -6.768154 -6.076574 -16.686394 -0.154554 6.939681 15.730479 0.000000 0.000000 0.000000 -1.175440 -21.182019 -8.905785 34.730476 11.250459 -5.146018 -9.592038 -2.755060 36.586228 -1.336734 14.672997 -31.199078 0.000000 0.000000 0.000000 0.020721 1.322625 13.813108 2.634877 1.209442 -1.586816 0.326085 1.753498 -8.825479 -1.527906 0.237124 0.032476 3.401654 -0.128280 4.528847 0.000000 0.000000 0.000000 0.597512 13.529785 10.684473 -69.577137 -4.394929 13.669196 1.846431 -87.366224 0.300767 3.891037 -12.751549 0.145642 3.940569 -12.739327 0.000000 0.000000 0.000000 0.000000 0.000000 0.000000 0.000000 1.873078 -16.451388 2.905389 62.085850 11.557388 0.241017 13.404248 2.886135 0.071109 0.660462 5.595864 0.035504 0.660349 5.596314 0.000000 0.000000 0.000000 0.000000 0.000000 0.000000 0.000000 
0.058244 17.783643 1.415900 -2.184151 -5.327490 6.282442 -0.780047 18.010685 0.882514 -19.723499 -5.073918 -11.734898 -6.659298 -5.679099 -15.545854 -0.226448 6.189712 14.072929 0.000000 0.000000 0.000000 -1.111429 -20.754409 -8.206569 33.502945 11.346931 -5.747889 -8.446932 -3.172031 36.276713 -1.347307 14.810909 -31.674146 0.000000 0.000000 0.000000 -0.088749 1.095510 13.487048 2.583479 1.030782 -1.328968 -0.186913 1.621361 -8.554909 -0.628547 0.153319 -0.652726 3.289209 -0.117345 4.482390 0.000000 0.000000 0.000000 0.869941 13.977155 10.428745 -69.946752 -5.452227 10.593063 6.534352 -89.536464 0.257153 4.335453 -11.786056 0.124551 4.380106 -11.772161 0.000000 0.000000 0.000000 0.000000 0.000000 0.000000 0.000000 0.157422 -16.270433 3.657978 63.806846 11.641976 0.368784 16.386612 6.870324 0.075179 0.691165 6.267244 0.037504 0.690280 6.267856 0.000000 0.000000 0.000000 0.000000 0.000000 0.000000 0.000000 
0.074598 17.812090 1.554924 -2.079942 -5.277050 6.470047 -0.673499 17.958945 0.583863 -20.077096 -5.041799 -11.556235 -6.536788 -5.270073 -14.414026 -0.286466 5.485918 12.465407 0.000000 0.000000 0.000000 -1.013450 -20.262013 -7.530606 32.220131 11.397182 -6.321593 -7.258420 -3.581278 35.897453 -1.351365 14.963531 -32.133386 0.000000 0.000000 0.000000 -0.223764 0.848843 13.145944 2.514779 0.847520 -1.110309 -0.453250 1.469283 -8.044323 0.104144 0.074869 -1.426710 3.134445 -0.105062 4.343535 0.000000 0.000000 0.000000 1.344014 14.170881 10.141733 -70.362373 -6.531364 7.812968 -169.980159 -88.855968 -179.804430 4.767951 -11.128576 0.093944 4.813046 -11.112217 0.000000 0.000000 0.000000 0.000000 0.000000 0.000000 0.000000 -1.354023 -15.878664 4.493495 64.951952 11.539752 0.832939 19.916966 12.410655 0.083956 0.736218 7.046650 0.041828 0.734175 7.047534 0.000000 0.000000 0.000000 0.000000 0.000000 0.000000 0.000000 
0.090468 17.839555 1.691982 -1.969823 -5.217072 6.653577 -0.596888 17.900254 0.289363 -20.401637 -5.017454 -11.402353 -6.405322 -4.855780 -13.273465 -0.333134 4.806483 10.906121 0.000000 0.000000 0.000000 -0.883115 -19.757654 -6.846713 30.887796 11.433512 -6.907122 -6.035419 -3.991149 35.481517 -1.344441 15.102592 -32.573759 0.000000 0.000000 0.000000 -0.361885 0.613322 12.800675 2.462855 0.679534 -0.900166 -0.590161 1.326812 -7.534019 0.700465 -0.001379 -2.148159 2.963744 -0.093667 4.171652 0.000000 0.000000 0.000000 1.731013 14.306455 9.837883 -70.767539 -7.660741 5.026806 -166.765859 -87.420996 -179.866662 5.116839 -10.443517 0.063000 5.161747 -10.425294 0.000000 0.000000 0.000000 0.000000 0.000000 0.000000 0.000000 -2.515700 -15.390613 5.445423 65.546476 11.114272 1.779907 23.659934 19.638419 0.101696 0.799048 7.932023 0.050589 0.795510 7.933321 0.000000 0.000000 0.000000 0.000000 0.000000 0.000000 0.000000 
